PathFileType	4	(X/Y/Z)	D:\Research_projects\MuscleProsody\BulkSports2Dtrack\RetrackedSports2D\p1_sample60_cam1\p1_sample60_cam1_Sports2D\p1_sample60_cam1_Sports2D_m_person00.trc
DataRate	CameraRate	NumFrames	NumMarkers	Units	OrigDataRate	OrigDataStartFrame	OrigNumFrames
60	60	7	22	m	60	682	780
Frame#	Time	Hip			RHip			RKnee			RAnkle			RBigToe			RSmallToe			RHeel			LHip			LKnee			LAnkle			LBigToe			LSmallToe			LHeel			Neck			Head			Nose			RShoulder			RElbow			RWrist			LShoulder			LElbow			LWrist		
		X1	Y1	Z1	X2	Y2	Z2	X3	Y3	Z3	X4	Y4	Z4	X5	Y5	Z5	X6	Y6	Z6	X7	Y7	Z7	X8	Y8	Z8	X9	Y9	Z9	X10	Y10	Z10	X11	Y11	Z11	X12	Y12	Z12	X13	Y13	Z13	X14	Y14	Z14	X15	Y15	Z15	X16	Y16	Z16	X17	Y17	Z17	X18	Y18	Z18	X19	Y19	Z19	X20	Y20	Z20	X21	Y21	Z21	X22	Y22	Z22
682	11.366666666666667	1.8373042549221548	0.6760981169167142	0.0301	1.737039340229731	0.6980921144003976	0.0301	1.4866183687255554	0.4131861286932794	0.129	1.2650854010632375	0.17280006542044715	0.023	1.2952842458194969	0.0020807753465490637	0.2179	1.229142789857869	0.03434151318501195	0.1804	1.208335919587959	0.16319914560881124	-0.0119	1.885200615832799	0.6072645975873154	0.0301	1.6294611472503564	0.34261975528559685	0.129	1.4026259380044226	0.1412156953776193	0.023	1.4377145363133774	-0.002528432377393013	0.2179	1.4753284048024415	0.01105004495068143	0.1804	1.3492197680845999	0.1188937279766571	-0.0119	2.2345733784017097	1.1632940114312509	0.0008	2.4649689919308395	1.3564339124219287	0.0655	2.4153949922144005	1.2075848536026201	0.1076	2.0308427750759526	1.1952722287159692	-0.01275	1.7674510061826436	1.06035092009131	0.0702	1.8971002710734315	0.9048090385963544	0.1076	2.274205058544266	1.024318835466365	-0.01275	2.1205497189069034	0.8292411786887914	0.0702	2.0763331067955453	0.6526851135911361	0.1076
683	11.383333333333333	1.8354961715619884	0.675807526729056	0.0301	1.7353301781362522	0.697898313701137	0.0301	1.486038434166328	0.41334012736311915	0.129	1.2650711994526147	0.17286272672821137	0.023	1.2965442227013644	0.0014382559748553855	0.2179	1.2304794039202458	0.033586095568828536	0.1804	1.2076634886575786	0.1633671441739685	-0.0119	1.8834723511908118	0.6066844426528746	0.0301	1.6286181587530595	0.3425574232333398	0.129	1.4025492248371811	0.1409382809215678	0.023	1.4377598405407874	-0.0023452734849704255	0.2179	1.475456201494605	0.011227835501190516	0.1804	1.3495477961190565	0.11866326518138134	-0.0119	2.2348003143069324	1.1632599001477637	0.0008	2.46439836056773	1.3569437394331783	0.0655	2.4156962628795546	1.2077146037156117	0.1076	2.0307472468429553	1.194572681041828	-0.01275	1.766816632566704	1.0523108528569052	0.0702	1.9167186822777893	0.8807924816950201	0.1076	2.274026567843816	1.0239873719601653	-0.01275	2.11807281142301	0.8279366809736325	0.0702	2.0760482927727977	0.6520352778932351	0.1076
684	11.4	1.8335043728789513	0.6753938788823691	0.0301	1.7334221183245537	0.6976884000276898	0.0301	1.4853915076284923	0.41353455262422323	0.129	1.2650796739533352	0.17279346066913795	0.023	1.2977127080394093	0.0007891455517349808	0.2179	1.2316066808670048	0.03299614144688822	0.1804	1.2072441829185376	0.16311343273718576	-0.0119	1.8815337527827796	0.6060216839254793	0.0301	1.6276929737239554	0.342514752167804	0.129	1.4024814195571296	0.14076576698310864	0.023	1.4380240890019618	-0.0022936932251690994	0.2179	1.475822891872062	0.01136736308902281	0.1804	1.349871873182426	0.11846459512164731	-0.0119	2.235022542626904	1.1632205808530554	0.0008	2.463953392185508	1.3573809283850484	0.0655	2.416102212561058	1.2076938668809878	0.1076	2.0304045841389007	1.1936971637275395	-0.01275	1.767381486414687	1.0436023311029112	0.0702	1.932938013389619	0.8567910495342034	0.1076	2.2738307777520763	1.023613045554807	-0.01275	2.115438964172851	0.8266191532249993	0.0702	2.0755869444522506	0.6512132616091971	0.1076
685	11.416666666666666	1.8314218260654578	0.6748695069625664	0.0301	1.7313996986348261	0.6974711460890741	0.0301	1.484717071701935	0.4137890576862439	0.129	1.2651042371064403	0.17260337731734332	0.023	1.2987500103938434	0.00014800410310240143	0.2179	1.2325103821362764	0.0325816522838353	0.1804	1.207080600631586	0.16245385948601387	-0.0119	1.8794851362604879	0.6053088662301126	0.0301	1.626739921666703	0.34249951811513646	0.129	1.402455652938232	0.14074464209294474	0.023	1.4384798971344201	-0.002393493582628598	0.2179	1.4763985666814163	0.011439378114923566	0.1804	1.3502175699979866	0.11832466567297602	-0.0119	2.2352296961016775	1.1631845002954384	0.0008	2.4636342038505537	1.3577271329213272	0.0655	2.41662329297329	1.207553817900087	0.1076	2.0297306511768736	1.192661333347013	-0.01275	1.7689867375958603	1.0343304030926095	0.0702	1.9455898993317875	0.8330888548189286	0.1076	2.2736353317795834	1.0232147024541625	-0.01275	2.1128434859167546	0.8252928922923753	0.0702	2.074891146613133	0.6501727152974528	0.1076
686	11.433333333333334	1.829357130577339	0.6742626034332891	0.0301	1.7293618212779178	0.6972556313323374	0.0301	1.4840695089877696	0.41410684712640894	0.129	1.2651347660479118	0.17232484571737203	0.023	1.299618861708598	-0.00044221114038529445	0.2179	1.233178746784576	0.03237020289699917	0.1804	1.207132687663627	0.1614706884831595	-0.0119	1.8774440867516167	0.604588816133691	0.0301	1.625830516225493	0.34253297679408024	0.129	1.402482164612273	0.14092102604797008	0.023	1.4390747827275638	-0.002657320526915962	0.2179	1.4771187064408542	0.011406511345947315	0.1804	1.350577948853341	0.11827556070614008	-0.0119	2.235409931306651	1.1631570404318614	0.0008	2.4634453074344282	1.3579724608714032	0.0655	2.41722626233448	1.2073415065446749	0.1076	2.028675931080058	1.1915012120456627	-0.01275	1.77144140680869	1.0246615991057761	0.0702	1.9545939685192233	0.8100190578208125	0.1076	2.2734540700329173	1.0228027063713399	-0.01275	2.11048259565893	0.8239197615719035	0.0702	2.073933530704418	0.648810653682212	0.1076
687	11.45	1.8274145466881693	0.6735988991885875	0.0301	1.7274037030725167	0.6970463037628313	0.0301	1.483494892567219	0.41446744847055955	0.129	1.2651634762750323	0.17200734194654124	0.023	1.3003036999936868	-0.0009287002182343354	0.2179	1.2336156575574908	0.032390844738276414	0.1804	1.2073222124077678	0.16030483299664922	-0.0119	1.875525899182578	0.6038918021464931	0.0301	1.6250258215388076	0.34264070464427865	0.129	1.4025502162883228	0.14131164007353306	0.023	1.439753064555878	-0.0030836052604922217	0.2179	1.4779102236062018	0.011243877451357293	0.1804	1.3509239963973119	0.11833395771475194	-0.0119	2.2355496830044235	1.1631432902655294	0.0008	2.463395186843585	1.3581186942033872	0.0655	2.417841917489562	1.2071062595722832	0.1076	2.027236506354624	1.1902685563243716	-0.01275	1.7745326258676157	1.0148152950878395	0.0702	1.9599596529714651	0.787946717880163	0.1076	2.273290738450663	1.0223807295798741	-0.01275	2.108530474820851	0.8224361533264779	0.0702	2.072711895960604	0.6469890423027961	0.1076
688	11.466666666666667	1.825678904623548	0.6728866029886703	0.0301	1.7255997465037194	0.6968353364283452	0.0301	1.4830125449531188	0.4148284361265486	0.129	1.2651803898292957	0.17169599475912797	0.023	1.3008240159962658	-0.0012761033704616082	0.2179	1.2338496504843586	0.03264319121618863	0.1804	1.2075529364518318	0.1591040492652483	-0.0119	1.8738291987992144	0.6032151589334562	0.0301	1.624351679619834	0.342829591358859	0.129	1.4026401236808852	0.14188220450516156	0.023	1.4404877160197045	-0.003651012782089676	0.2179	1.4787201634957992	0.01095415107245439	0.1804	1.3512336560562288	0.11848012665809161	-0.0119	2.2356325408401263	1.1631512668715505	0.0008	2.4634912569472984	1.3581742179043215	0.0655	2.418398535123205	1.2068832420727242	0.1076	2.0254518850090295	1.1890209231866369	-0.01275	1.7780324154123335	1.0050339607183658	0.0702	1.9617793857834724	0.7672368817144865	0.1076	2.2731375819439745	1.0219560255148628	-0.01275	2.107106589874079	0.820789376100015	0.0702	2.0712286940193994	0.6445648184853521	0.1076
